<?xml version="1.0" encoding="UTF-8" standalone="no"?>
<svg
   xmlns="http://www.w3.org/2000/svg"
   version="1.1"
   width="120.0mm"
   height="180.0mm"
   viewBox="-60.0 -90.0 120.0 180.0"
   stroke="black"
   stroke-width="0.2645833333333333"
   fill="none">
  <polyline
     fill="none"
     points="10.0,-0.0 10.0,-49.99999999999999">
  </polyline>
  <polyline
     fill="none"
     points="10.0,-49.99999999999999 11.464466094067268,-53.53553390593272 15.000000000000005,-54.999999999999986">
  </polyline>
  <polyline
     fill="none"
     points="15.000000000000005,-54.999999999999986 50.0,-54.99999999999999">
  </polyline>
  <polyline
     fill="none"
     points="50.0,-54.99999999999999 50.0,-75.0">
  </polyline>
  <polyline
     fill="none"
     points="50.0,-75.0 0.0,-75.0">
  </polyline>
  <polyline
     fill="none"
     points="-10.0,-0.0 -10.0,-49.99999999999999">
  </polyline>
  <polyline
     fill="none"
     points="-10.0,-49.99999999999999 -11.464466094067268,-53.53553390593272 -15.000000000000005,-54.999999999999986">
  </polyline>
  <polyline
     fill="none"
     points="-15.000000000000005,-54.999999999999986 -50.0,-54.99999999999999">
  </polyline>
  <polyline
     fill="none"
     points="-50.0,-54.99999999999999 -50.0,-75.0">
  </polyline>
  <polyline
     fill="none"
     points="-50.0,-75.0 -0.0,-75.0">
  </polyline>
  <polyline
     fill="none"
     points="10.0,0.0 10.0,49.99999999999999">
  </polyline>
  <polyline
     fill="none"
     points="10.0,49.99999999999999 11.464466094067268,53.53553390593272 15.000000000000005,54.999999999999986">
  </polyline>
  <polyline
     fill="none"
     points="15.000000000000005,54.999999999999986 50.0,54.99999999999999">
  </polyline>
  <polyline
     fill="none"
     points="50.0,54.99999999999999 50.0,75.0">
  </polyline>
  <polyline
     fill="none"
     points="50.0,75.0 0.0,75.0">
  </polyline>
  <polyline
     fill="none"
     points="-10.0,0.0 -10.0,49.99999999999999">
  </polyline>
  <polyline
     fill="none"
     points="-10.0,49.99999999999999 -11.464466094067268,53.53553390593272 -15.000000000000005,54.999999999999986">
  </polyline>
  <polyline
     fill="none"
     points="-15.000000000000005,54.999999999999986 -50.0,54.99999999999999">
  </polyline>
  <polyline
     fill="none"
     points="-50.0,54.99999999999999 -50.0,75.0">
  </polyline>
  <polyline
     fill="none"
     points="-50.0,75.0 -0.0,75.0">
  </polyline>
</svg>
