<?xml version="1.0" encoding="UTF-8" standalone="no"?>
<svg
   xmlns="http://www.w3.org/2000/svg"
   version="1.1"
   width="177.90672254276012mm"
   height="71.86592677571612mm"
   viewBox="-88.95336127138006 -185.83580326528758 177.90672254276012 71.86592677571612"
   stroke="black"
   stroke-width="0.2645833333333333"
   fill="none">
  <g
     stroke-width="0.5">
    <polyline
       fill="none"
       points="-19.842046723280365,-149.03577440921381 -21.76437923050273,-146.6468144675625 -23.315372165295447,-144.00164664918853 -24.461451214509673,-141.1575308491391 -25.177807227807914,-138.17603358545603 -25.448933260846967,-135.12169526998622 -25.26896025379306,-132.06063310337308 -24.641784078743104,-129.05910983733162 -23.580981205859064,-126.18209938618283 -22.10951481378892,-123.49188033782517 -20.25923770619613,-121.04668781038352 -18.07020279475355,-118.89945283776781 -15.58979607456266,-117.0966565726368 -12.871710860462032,-115.67732410981286 -9.97478548891103,-114.67217971083204 -6.961729645693195,-114.10298171646699 -3.8977668905977443,-113.98205154435787 -0.849222764320813,-114.31200696753025 2.1179109591922143,-115.08570544751457 4.939404795362144,-116.28639874873409 7.554181923348557,-117.88809548722661 9.905640314773281,-119.85612376561508 11.942877996700664,-122.14788171497916 13.621794925631303,-124.71375969666273 14.906047620264706,-127.49821420113311 15.767835888114728,-130.4409701972249 16.188504615722298,-133.47832590453868 16.15894759552463,-136.54453174461128 15.679804647748885,-139.57321362073088 14.761447770236458,-142.49880971668532 13.423756616012406,-145.25798971209142 11.695688158832626,-147.79102569257782 9.61464986215003,-150.04308507875723">
    </polyline>
    <polyline
       fill="none"
       points="-9.614649862150042,-150.0430850787572 -9.614649862150038,-149.03577440921384 -9.811166425041536,-148.04781893173254 -10.196647529520373,-147.1171852212612 -10.75627935292172,-146.27963700938773 -11.468555558117405,-145.56736080419205 -12.306103769990857,-145.0077289807907 -13.236737480462228,-144.62224787631186 -14.2246929579435,-144.42573131342036 -15.23200362748688,-144.42573131342036 -16.219959104968154,-144.62224787631183 -17.150592815439524,-145.00772898079066 -17.988141027312977,-145.56736080419202 -18.70041723250867,-146.27963700938773 -19.260049055910017,-147.11718522126117 -19.64553016038886,-148.04781893173254 -19.84204672328036,-149.03577440921381">
    </polyline>
    <polyline
       fill="none"
       points="-9.614649862150042,-150.0430850787572 -9.621195867308499,-150.37006042886998 -9.583321284500181,-151.35039897729303 -9.415023072702152,-152.9768241102202 -9.031251415169649,-155.23357610973918 -8.348652720597029,-158.09651847551515 -7.2863019454476765,-161.53330518944398 -5.766419444010773,-165.50360792488084 -4.81162966137335,-167.6741116924023 -3.7150676413904824,-169.95940183590875">
    </polyline>
    <polyline
       fill="none"
       points="-3.7150676413904824,-169.95940183590875 3.7150676413904824,-169.95940183590875">
    </polyline>
    <polyline
       fill="none"
       points="9.614649862150042,-150.0430850787572 9.621195867308499,-150.37006042886998 9.583321284500181,-151.35039897729303 9.415023072702152,-152.9768241102202 9.031251415169649,-155.23357610973918 8.348652720597029,-158.09651847551515 7.2863019454476765,-161.53330518944398 5.766419444010773,-165.50360792488084 4.81162966137335,-167.6741116924023 3.7150676413904824,-169.95940183590875">
    </polyline>
  </g>
</svg>
