<?xml version="1.0" encoding="UTF-8" standalone="no"?>
<svg
   xmlns="http://www.w3.org/2000/svg"
   version="1.1"
   width="41.14617453126737mm"
   height="41.14617453126738mm"
   viewBox="-20.573087265633685 -20.57308726563369 41.14617453126737 41.14617453126738"
   stroke="black"
   stroke-width="0.2645833333333333"
   fill="none">
  <path
     d="M -1.984204672328036 -14.903577440921383 L -2.0127817620536828 -15.03118567354623 L -2.142684989934492 -15.401271621958081 L -2.4367286829069625 -15.985097501753351 L -2.951375077545784 -16.74184533292677 L -3.680111809221412 -16.59689058443265 L -3.8659882222406647 -15.700800103184523 L -3.9142286802583413 -15.04888967259927 L -3.8926178526962345 -14.6572630264708 L -3.8701860845335783 -14.528432413385548 L -3.908734194981462 -14.137046879887817 L -4.212743190075647 -13.887553145392886 L -4.604128723573377 -13.926101255840768 L -4.85362245806831 -14.230110250934958 L -4.906545578222678 -14.349691413514817 L -5.106152938854354 -14.687323401643026 L -5.508445443607769 -15.202566152115883 L -6.160837230150745 -15.844370755053308 L -6.847292221305876 -15.56003178775815 L -6.8547784906270275 -14.644896744569413 L -6.774910605942123 -13.996101343621188 L -6.677312455868576 -13.616215756992826 L -6.630178102048888 -13.494236808887733 L -6.591629991601005 -13.102851275390002 L -6.841123726095937 -12.798842280295815 L -7.232509259593667 -12.760294169847933 L -7.536518254687853 -13.009787904342867 L -7.611753599443035 -13.116746559861687 L -7.873394293897601 -13.408949579748688 L -8.368475735082521 -13.835808710949921 L -9.133541863038333 -14.338005894688646 L -9.751335033331271 -13.925209695646467 L -9.580143465822655 -13.026198217013212 L -9.375236516453185 -12.405450689111806 L -9.205401686041853 -12.05190495203539 L -9.135376093349176 -11.94146525147955 L -9.021213144272005 -11.565120444542599 L -9.206603713868745 -11.218279084040423 L -9.58294852080569 -11.104116134963254 L -9.92978988130787 -11.289506704559994 L -10.024446198557396 -11.379732491869287 L -10.338065521676752 -11.615277345330167 L -10.906910197153312 -11.937348900233074 L -11.75524960427865 -12.280639508637439 L -12.280639508637437 -11.755249604278651 L -11.937348900233072 -10.906910197153314 L -11.615277345330165 -10.338065521676754 L -11.379732491869285 -10.024446198557397 L -11.28950670455999 -9.929789881307872 L -11.104116134963252 -9.582948520805692 L -11.218279084040422 -9.206603713868747 L -11.565120444542599 -9.021213144272009 L -11.941465251479547 -9.135376093349178 L -12.05190495203539 -9.205401686041855 L -12.405450689111804 -9.375236516453187 L -13.026198217013212 -9.580143465822657 L -13.925209695646467 -9.751335033331273 L -14.338005894688646 -9.133541863038335 L -13.835808710949921 -8.368475735082523 L -13.40894957974869 -7.8733942938976025 L -13.116746559861687 -7.611753599443037 L -13.009787904342867 -7.536518254687855 L -12.760294169847933 -7.232509259593668 L -12.798842280295817 -6.841123726095938 L -13.102851275390003 -6.591629991601006 L -13.494236808887734 -6.63017810204889 L -13.616215756992826 -6.677312455868577 L -13.996101343621188 -6.774910605942124 L -14.644896744569413 -6.854778490627028 L -15.56003178775815 -6.847292221305878 L -15.844370755053308 -6.160837230150746 L -15.202566152115883 -5.50844544360777 L -14.687323401643026 -5.106152938854355 L -14.349691413514817 -4.906545578222679 L -14.230110250934956 -4.853622458068312 L -13.926101255840768 -4.604128723573379 L -13.887553145392886 -4.212743190075649 L -14.13704687988782 -3.908734194981464 L -14.528432413385548 -3.87018608453358 L -14.6572630264708 -3.892617852696236 L -15.04888967259927 -3.914228680258342 L -15.700800103184523 -3.865988222240666 L -16.59689058443265 -3.680111809221413 L -16.74184533292677 -2.9513750775457854 L -15.985097501753351 -2.436728682906964 L -15.401271621958081 -2.1426849899344935 L -15.03118567354623 -2.012781762053684 L -14.903577440921383 -1.9842046723280375 L -14.556736080419205 -1.7988141027312998 L -14.442573131342034 -1.4224692957943526 L -14.627963700938773 -1.075627935292174 L -15.004308507875724 -0.9614649862150061 L -15.135039897729303 -0.9583321284500191 L -15.523357610973918 -0.9031251415169667 L -16.153330518944394 -0.7286301945447695 L -16.995940183590875 -0.37150676413905015 L -16.995940183590875 0.3715067641390481 L -16.153330518944394 0.7286301945447676 L -15.523357610973918 0.9031251415169648 L -15.135039897729303 0.9583321284500173 L -15.004308507875722 0.9614649862150033 L -14.627963700938773 1.075627935292172 L -14.442573131342035 1.4224692957943503 L -14.556736080419205 1.798814102731298 L -14.903577440921383 1.984204672328035 L -15.03118567354623 2.012781762053682 L -15.401271621958081 2.1426849899344913 L -15.985097501753351 2.4367286829069617 L -16.74184533292677 2.951375077545783 L -16.59689058443265 3.680111809221411 L -15.700800103184523 3.865988222240664 L -15.04888967259927 3.9142286802583395 L -14.6572630264708 3.8926178526962336 L -14.528432413385548 3.8701860845335774 L -14.137046879887817 3.908734194981461 L -13.887553145392886 4.212743190075647 L -13.926101255840768 4.604128723573377 L -14.230110250934958 4.853622458068309 L -14.349691413514817 4.906545578222677 L -14.687323401643026 5.106152938854353 L -15.202566152115883 5.5084454436077674 L -15.844370755053308 6.160837230150744 L -15.56003178775815 6.847292221305875 L -14.644896744569413 6.854778490627026 L -13.996101343621188 6.7749106059421225 L -13.616215756992826 6.6773124558685755 L -13.494236808887733 6.6301781020488875 L -13.102851275390002 6.591629991601004 L -12.798842280295815 6.841123726095937 L -12.760294169847933 7.232509259593666 L -13.009787904342867 7.536518254687852 L -13.11674655986169 7.611753599443031 L -13.408949579748692 7.873394293897598 L -13.835808710949925 8.368475735082518 L -14.33800589468865 9.13354186303833 L -13.925209695646469 9.751335033331268 L -13.026198217013215 9.580143465822653 L -12.40545068911181 9.375236516453182 L -12.051904952035393 9.20540168604185 L -11.941465251479553 9.135376093349173 L -11.565120444542604 9.021213144272002 L -11.218279084040427 9.206603713868741 L -11.104116134963258 9.582948520805687 L -11.289506704559997 9.929789881307867 L -11.379732491869287 10.024446198557396 L -11.615277345330167 10.338065521676752 L -11.937348900233074 10.906910197153312 L -12.280639508637439 11.75524960427865 L -11.755249604278651 12.280639508637437 L -10.906910197153314 11.937348900233072 L -10.338065521676754 11.615277345330165 L -10.024446198557397 11.379732491869285 L -9.929789881307872 11.28950670455999 L -9.582948520805692 11.104116134963252 L -9.206603713868747 11.218279084040422 L -9.021213144272009 11.565120444542599 L -9.135376093349178 11.941465251479547 L -9.205401686041853 12.051904952035391 L -9.375236516453185 12.405450689111808 L -9.580143465822655 13.026198217013214 L -9.751335033331271 13.925209695646467 L -9.133541863038333 14.338005894688648 L -8.368475735082521 13.835808710949923 L -7.873394293897601 13.40894957974869 L -7.611753599443035 13.116746559861689 L -7.536518254687853 13.009787904342867 L -7.232509259593666 12.760294169847933 L -6.841123726095936 12.798842280295819 L -6.591629991601003 13.102851275390003 L -6.630178102048888 13.494236808887734 L -6.677312455868578 13.616215756992826 L -6.774910605942125 13.996101343621188 L -6.854778490627029 14.644896744569413 L -6.847292221305879 15.56003178775815 L -6.160837230150747 15.844370755053308 L -5.508445443607771 15.202566152115883 L -5.106152938854356 14.687323401643026 L -4.90654557822268 14.349691413514817 L -4.853622458068313 14.230110250934956 L -4.60412872357338 13.926101255840768 L -4.21274319007565 13.887553145392886 L -3.9087341949814647 14.13704687988782 L -3.870186084533581 14.528432413385548 L -3.89261785269624 14.657263026470797 L -3.9142286802583466 15.04888967259927 L -3.865988222240671 15.700800103184523 L -3.680111809221418 16.59689058443265 L -2.95137507754579 16.74184533292677 L -2.4367286829069688 15.985097501753351 L -2.142684989934498 15.401271621958081 L -2.012781762053688 15.031185673546231 L -1.984204672328042 14.903577440921383 L -1.7988141027313038 14.556736080419205 L -1.4224692957943563 14.442573131342035 L -1.0756279352921783 14.627963700938773 L -0.96146498621501 15.004308507875724 L -0.95833212845002 15.135039897729303 L -0.9031251415169677 15.523357610973918 L -0.7286301945447705 16.153330518944394 L -0.3715067641390512 16.995940183590875 L 0.3715067641390471 16.995940183590875 L 0.7286301945447666 16.153330518944394 L 0.9031251415169638 15.523357610973918 L 0.9583321284500164 15.135039897729303 L 0.9614649862150023 15.004308507875722 L 1.0756279352921712 14.627963700938773 L 1.4224692957943494 14.442573131342035 L 1.7988141027312972 14.556736080419205 L 1.9842046723280342 14.903577440921383 L 2.0127817620536845 15.03118567354623 L 2.142684989934494 15.401271621958081 L 2.4367286829069643 15.985097501753351 L 2.951375077545786 16.74184533292677 L 3.6801118092214136 16.59689058443265 L 3.8659882222406665 15.700800103184523 L 3.914228680258343 15.04888967259927 L 3.8926178526962363 14.6572630264708 L 3.87018608453358 14.528432413385548 L 3.908734194981464 14.137046879887817 L 4.212743190075649 13.887553145392886 L 4.604128723573379 13.926101255840768 L 4.853622458068312 14.230110250934956 L 4.906545578222676 14.349691413514819 L 5.106152938854353 14.687323401643027 L 5.508445443607767 15.202566152115885 L 6.160837230150743 15.844370755053312 L 6.8472922213058744 15.560031787758154 L 6.854778490627025 14.644896744569415 L 6.774910605942122 13.99610134362119 L 6.677312455868575 13.616215756992828 L 6.6301781020488875 13.494236808887734 L 6.591629991601003 13.102851275390003 L 6.841123726095936 12.798842280295817 L 7.232509259593666 12.760294169847935 L 7.536518254687851 13.009787904342868 L 7.611753599443031 13.11674655986169 L 7.873394293897598 13.408949579748692 L 8.368475735082518 13.835808710949925 L 9.13354186303833 14.33800589468865 L 9.751335033331268 13.925209695646469 L 9.580143465822653 13.026198217013215 L 9.375236516453182 12.40545068911181 L 9.20540168604185 12.051904952035393 L 9.135376093349173 11.941465251479553 L 9.021213144272002 11.565120444542604 L 9.206603713868741 11.218279084040427 L 9.582948520805687 11.104116134963258 L 9.929789881307867 11.289506704559997 L 10.024446198557396 11.379732491869289 L 10.338065521676752 11.615277345330169 L 10.906910197153312 11.937348900233076 L 11.75524960427865 12.28063950863744 L 12.280639508637437 11.755249604278653 L 11.937348900233072 10.906910197153316 L 11.615277345330165 10.338065521676755 L 11.379732491869285 10.0244461985574 L 11.28950670455999 9.929789881307874 L 11.104116134963252 9.582948520805694 L 11.218279084040422 9.206603713868747 L 11.5651204445426 9.02121314427201 L 11.941465251479547 9.13537609334918 L 12.05190495203539 9.205401686041853 L 12.405450689111806 9.375236516453185 L 13.026198217013212 9.580143465822655 L 13.925209695646467 9.751335033331271 L 14.338005894688646 9.133541863038333 L 13.835808710949921 8.368475735082521 L 13.408949579748688 7.873394293897601 L 13.116746559861687 7.611753599443035 L 13.009787904342865 7.536518254687853 L 12.760294169847933 7.232509259593666 L 12.798842280295817 6.841123726095936 L 13.102851275390003 6.591629991601004 L 13.494236808887733 6.630178102048888 L 13.616215756992823 6.677312455868585 L 13.996101343621184 6.7749106059421305 L 14.644896744569408 6.8547784906270355 L 15.560031787758147 6.847292221305885 L 15.844370755053305 6.160837230150754 L 15.202566152115882 5.508445443607779 L 14.687323401643022 5.106152938854364 L 14.349691413514813 4.906545578222687 L 14.230110250934953 4.85362245806832 L 13.926101255840766 4.604128723573386 L 13.887553145392884 4.212743190075657 L 14.137046879887816 3.9087341949814705 L 14.528432413385545 3.8701860845335885 L 14.657263026470796 3.89261785269624 L 15.048889672599268 3.9142286802583475 L 15.700800103184523 3.865988222240672 L 16.596890584432646 3.680111809221419 L 16.741845332926765 2.9513750775457908 L 15.985097501753351 2.4367286829069696 L 15.40127162195808 2.142684989934499 L 15.03118567354623 2.012781762053689 L 14.903577440921381 1.9842046723280429 L 14.556736080419203 1.7988141027313047 L 14.442573131342035 1.4224692957943572 L 14.627963700938771 1.0756279352921794 L 15.004308507875722 0.9614649862150111 L 15.135039897729303 0.958332128450021 L 15.523357610973918 0.9031251415169685 L 16.153330518944394 0.7286301945447715 L 16.995940183590875 0.37150676413905226 L 16.995940183590875 -0.371506764139046 L 16.153330518944394 -0.7286301945447656 L 15.523357610973918 -0.9031251415169629 L 15.135039897729303 -0.9583321284500154 L 15.004308507875722 -0.9614649862150014 L 14.627963700938773 -1.0756279352921703 L 14.442573131342035 -1.4224692957943486 L 14.556736080419205 -1.7988141027312963 L 14.903577440921383 -1.9842046723280333 L 15.03118567354623 -2.0127817620536836 L 15.401271621958081 -2.142684989934493 L 15.985097501753351 -2.4367286829069634 L 16.74184533292677 -2.951375077545785 L 16.59689058443265 -3.6801118092214127 L 15.700800103184523 -3.8659882222406656 L 15.04888967259927 -3.9142286802583413 L 14.6572630264708 -3.8926178526962354 L 14.528432413385548 -3.870186084533579 L 14.137046879887817 -3.908734194981463 L 13.887553145392886 -4.212743190075649 L 13.926101255840768 -4.604128723573378 L 14.230110250934958 -4.853622458068311 L 14.349691413514815 -4.906545578222682 L 14.687323401643024 -5.106152938854358 L 15.202566152115882 -5.508445443607773 L 15.844370755053308 -6.160837230150749 L 15.56003178775815 -6.84729222130588 L 14.644896744569412 -6.854778490627031 L 13.996101343621186 -6.774910605942127 L 13.616215756992824 -6.67731245586858 L 13.494236808887731 -6.630178102048892 L 13.10285127539 -6.591629991601008 L 12.798842280295814 -6.84112372609594 L 12.760294169847931 -7.23250925959367 L 13.009787904342865 -7.536518254687857 L 13.11674655986169 -7.61175359944303 L 13.408949579748692 -7.873394293897596 L 13.835808710949925 -8.368475735082516 L 14.33800589468865 -9.133541863038328 L 13.925209695646469 -9.751335033331266 L 13.026198217013215 -9.580143465822651 L 12.40545068911181 -9.37523651645318 L 12.051904952035393 -9.20540168604185 L 11.941465251479553 -9.135376093349171 L 11.565120444542604 -9.021213144272 L 11.218279084040427 -9.20660371386874 L 11.104116134963258 -9.582948520805687 L 11.289506704559997 -9.929789881307865 L 11.379732491869289 -10.024446198557392 L 11.615277345330169 -10.33806552167675 L 11.937348900233076 -10.906910197153312 L 12.28063950863744 -11.755249604278646 L 11.755249604278653 -12.280639508637433 L 10.906910197153316 -11.93734890023307 L 10.338065521676755 -11.615277345330163 L 10.0244461985574 -11.379732491869285 L 9.929789881307874 -11.289506704559988 L 9.582948520805694 -11.10411613496325 L 9.206603713868748 -11.218279084040422 L 9.02121314427201 -11.565120444542599 L 9.13537609334918 -11.941465251479546 L 9.205401686041853 -12.05190495203539 L 9.375236516453185 -12.405450689111806 L 9.580143465822655 -13.026198217013212 L 9.751335033331271 -13.925209695646467 L 9.133541863038333 -14.338005894688646 L 8.368475735082521 -13.835808710949921 L 7.873394293897601 -13.408949579748688 L 7.611753599443035 -13.116746559861687 L 7.536518254687853 -13.009787904342865 L 7.232509259593666 -12.760294169847933 L 6.841123726095936 -12.798842280295817 L 6.591629991601004 -13.102851275390003 L 6.630178102048888 -13.494236808887733 L 6.677312455868586 -13.616215756992823 L 6.774910605942131 -13.996101343621183 L 6.854778490627036 -14.644896744569408 L 6.847292221305886 -15.560031787758147 L 6.160837230150755 -15.844370755053305 L 5.50844544360778 -15.202566152115882 L 5.106152938854365 -14.687323401643024 L 4.906545578222688 -14.349691413514813 L 4.853622458068322 -14.230110250934953 L 4.604128723573387 -13.926101255840766 L 4.212743190075658 -13.887553145392884 L 3.9087341949814713 -14.137046879887816 L 3.8701860845335894 -14.528432413385547 L 3.8926178526962407 -14.657263026470796 L 3.9142286802583484 -15.048889672599268 L 3.8659882222406727 -15.700800103184523 L 3.68011180922142 -16.596890584432646 L 2.9513750775457916 -16.741845332926765 L 2.4367286829069705 -15.985097501753351 L 2.1426849899344993 -15.40127162195808 L 2.01278176205369 -15.03118567354623 L 1.9842046723280438 -14.903577440921381 L 1.7988141027313056 -14.556736080419203 L 1.422469295794358 -14.442573131342035 L 1.0756279352921798 -14.627963700938771 L 0.961464986215012 -15.004308507875722 L 0.9583321284500181 -15.135039897729303 L 0.9031251415169658 -15.523357610973918 L 0.7286301945447686 -16.153330518944394 L 0.37150676413904915 -16.995940183590875 L -0.37150676413904915 -16.995940183590875 L -0.7286301945447686 -16.153330518944394 L -0.9031251415169658 -15.523357610973918 L -0.9583321284500181 -15.135039897729303 L -0.9614649862150042 -15.004308507875722 L -1.075627935292173 -14.627963700938773 L -1.4224692957943512 -14.442573131342035 L -1.798814102731299 -14.556736080419205 Z">
  </path>
</svg>
